<?xml version="1.0" encoding="utf-8"?>
<svg xmlns="http://www.w3.org/2000/svg"
	xmlns:xlink="http://www.w3.org/1999/xlink"
	width="19px" height="29px" viewBox="0 0 19 29">
<path fillRule="evenodd" d="M 18.98 9.77C 19.43 17.45 11.81 28.57 9.57 28.96 9.57 28.96 9.57 28.99 9.57 28.99 9.57 28.99 9.56 29 9.56 29 9.54 29 9.51 28.99 9.49 28.98 9.48 28.99 9.45 29 9.44 29 9.44 29 9.43 28.99 9.43 28.99 9.43 28.99 9.43 28.97 9.43 28.97 7.19 28.56-0.43 17.44 0.02 9.77 0.02 9.62-0 9.47-0 9.31-0 4.17 4.25-0 9.5-0 14.75-0 19 4.17 19 9.31 19 9.47 18.98 9.62 18.98 9.77ZM 9.5 5C 7.01 5 5 7.01 5 9.5 5 11.99 7.01 14 9.5 14 11.99 14 14 11.99 14 9.5 14 7.01 11.99 5 9.5 5Z" fill="rgb(255,255,255)"/></svg>